<!DOCTYPE svg PUBLIC "-//W3C//DTD SVG 1.1//EN" "http://www.w3.org/Graphics/SVG/1.1/DTD/svg11.dtd">

<!-- Uploaded to: SVG Repo, www.svgrepo.com, Transformed by: SVG Repo Mixer Tools -->
<svg fill="#90e9fd" width="800px" height="800px" viewBox="-2.4 -2.4 28.80 28.80" id="invoice-dollar-done" data-name="Flat Line" xmlns="http://www.w3.org/2000/svg" class="icon flat-line" stroke="#90e9fd">

<g id="SVGRepo_bgCarrier" stroke-width="0">

<path transform="translate(-2.4, -2.4), scale(0.8999999999999999)" d="M16,31.310148935765028C19.144642267655303,29.964697332403887,18.430727197510947,25.029981326272456,20.70369312862953,22.474078181690178C22.20279226883175,20.788372226300943,25.52954921740194,21.43732116412346,26.563101637508368,19.432159775336537C27.601408909750468,17.41777365278056,26.69797977921916,14.87550364614961,25.658286786217474,12.861832391291927C24.718913989576134,11.042460700875159,22.56427044742454,10.396856777445606,21.13899444211105,8.92678096047651C19.25515702129381,6.983730053058951,18.612438196293397,3.606685367467071,16,2.8999627009034157C13.337523780059392,2.1797036354493646,10.676601163807529,3.9899461375587197,8.346740149299727,5.466191508828226C5.875785628158788,7.031836477235227,3.496875962779832,8.875585073867168,2.3333316472817334,11.559430270318904C1.099337832392434,14.405775122361806,0.9352225987820354,17.635422329885277,1.7763438229811204,20.621546044358272C2.6405830261589167,23.689742524650196,4.504606560477555,26.399701903369884,7.0528846364810125,28.314647826717398C9.630252260743022,30.251453574694843,13.035927662809048,32.578342752140045,16,31.310148935765028" fill="#e6e6e6" strokewidth="0"/>

</g>

<g id="SVGRepo_tracerCarrier" stroke-linecap="round" stroke-linejoin="round"/>

<g id="SVGRepo_iconCarrier">

<path id="secondary" d="M11,10a8,8,0,0,1,4.13-7H5A1,1,0,0,0,4,4V20a1,1,0,0,0,1,1H17a1,1,0,0,0,1-1V17.93A8,8,0,0,1,11,10Z" style="fill: #90e9fd; stroke-width: 2;"/>

<polyline id="primary" points="11 10.5 9.09 13 8 11.75" style="fill: none; stroke: #000000; stroke-linecap: round; stroke-linejoin: round; stroke-width: 2;"/>

<path id="primary-2" data-name="primary" d="M20,7H17.5A1.5,1.5,0,0,0,16,8.5h0A1.5,1.5,0,0,0,17.5,10h1A1.5,1.5,0,0,1,20,11.5h0A1.5,1.5,0,0,1,18.5,13H16" style="fill: none; stroke: #000000; stroke-linecap: round; stroke-linejoin: round; stroke-width: 2;"/>

<path id="primary-3" data-name="primary" d="M11,17H8M18,7V6m0,8V13" style="fill: none; stroke: #000000; stroke-linecap: round; stroke-linejoin: round; stroke-width: 2;"/>

<path id="primary-4" data-name="primary" d="M15,3H5A1,1,0,0,0,4,4V20a1,1,0,0,0,1,1H17a1,1,0,0,0,1-1V18" style="fill: none; stroke: #000000; stroke-linecap: round; stroke-linejoin: round; stroke-width: 2;"/>

</g>

</svg>